<svg xmlns="http://www.w3.org/2000/svg" viewBox="0 0 256 256">
  <defs>
    <linearGradient id="bg" x1="0%" y1="0%" x2="100%" y2="100%">
      <stop offset="0%" style="stop-color:#0ea5e9"/>
      <stop offset="100%" style="stop-color:#1d4ed8"/>
    </linearGradient>
    <linearGradient id="profit" x1="0%" y1="100%" x2="100%" y2="0%">
      <stop offset="0%" style="stop-color:#22c55e"/>
      <stop offset="100%" style="stop-color:#86efac"/>
    </linearGradient>
    <linearGradient id="loss" x1="0%" y1="0%" x2="0%" y2="100%">
      <stop offset="0%" style="stop-color:#f87171"/>
      <stop offset="100%" style="stop-color:#ef4444"/>
    </linearGradient>
  </defs>
  <rect x="0" y="0" width="256" height="256" rx="48" fill="url(#bg)"/>
  <line x1="28" y1="60" x2="228" y2="60" stroke="rgba(255,255,255,0.08)" stroke-width="1"/>
  <line x1="28" y1="100" x2="228" y2="100" stroke="rgba(255,255,255,0.08)" stroke-width="1"/>
  <line x1="28" y1="140" x2="228" y2="140" stroke="rgba(255,255,255,0.08)" stroke-width="1"/>
  <line x1="28" y1="180" x2="228" y2="180" stroke="rgba(255,255,255,0.08)" stroke-width="1"/>
  <line x1="52" y1="85" x2="52" y2="155" stroke="url(#loss)" stroke-width="2.5"/>
  <rect x="42" y="98" width="20" height="35" rx="2" fill="url(#loss)"/>
  <line x1="88" y1="100" x2="88" y2="175" stroke="url(#loss)" stroke-width="2.5"/>
  <rect x="78" y="110" width="20" height="42" rx="2" fill="url(#loss)"/>
  <line x1="124" y1="120" x2="124" y2="185" stroke="url(#profit)" stroke-width="2.5"/>
  <rect x="114" y="130" width="20" height="38" rx="2" fill="url(#profit)"/>
  <line x1="160" y1="80" x2="160" y2="150" stroke="url(#profit)" stroke-width="2.5"/>
  <rect x="150" y="88" width="20" height="40" rx="2" fill="url(#profit)"/>
  <line x1="196" y1="45" x2="196" y2="115" stroke="url(#profit)" stroke-width="2.5"/>
  <rect x="186" y="50" width="20" height="45" rx="2" fill="url(#profit)"/>
  <polyline points="52,125 88,140 124,155 160,110 196,68"
            fill="none" stroke="rgba(255,255,255,0.15)" stroke-width="8" 
            stroke-linecap="round" stroke-linejoin="round"/>
  <polyline points="52,125 88,140 124,155 160,110 196,68"
            fill="none" stroke="#fbbf24" stroke-width="4" 
            stroke-linecap="round" stroke-linejoin="round"/>
  <g transform="translate(170, 170)">
    <rect x="0" y="0" width="60" height="60" rx="12" fill="rgba(255,255,255,0.95)"/>
    <rect x="8" y="10" width="6" height="40" rx="2" fill="#1d4ed8"/>
    <rect x="14" y="10" width="36" height="40" rx="2" fill="#e0e7ff" stroke="#1d4ed8" stroke-width="1"/>
    <line x1="20" y1="20" x2="44" y2="20" stroke="#93c5fd" stroke-width="1.5"/>
    <line x1="20" y1="27" x2="44" y2="27" stroke="#93c5fd" stroke-width="1.5"/>
    <line x1="20" y1="34" x2="44" y2="34" stroke="#93c5fd" stroke-width="1.5"/>
    <line x1="20" y1="41" x2="38" y2="41" stroke="#93c5fd" stroke-width="1.5"/>
    <polyline points="28,30 34,36 46,22" fill="none" 
              stroke="#16a34a" stroke-width="3" stroke-linecap="round" stroke-linejoin="round"/>
  </g>
</svg>
